<svg width="277" height="72" viewBox="0 0 277 72" fill="none" xmlns="http://www.w3.org/2000/svg">
<path d="M0.046055 2.43666L2.43407 0.0461096L15.0255 12.6509C19.037 9.14439 23.4932 6.78426 28.3941 5.57051C33.4222 4.35667 38.3859 4.35326 43.2851 5.56027C48.3115 6.76719 52.8281 9.12114 56.8348 12.6221L69.4436 0L71.9237 2.48276L59.3149 15.1049C62.8122 19.1158 65.1319 23.6054 66.2739 28.5735C67.5432 33.5416 67.5398 38.5105 66.2637 43.4803C65.1148 48.4501 62.789 52.9428 59.2862 56.9586L71.8776 69.5634L69.4896 71.9539L56.8982 59.3491C52.9503 62.9193 48.4622 65.3113 43.4341 66.5251C38.4697 67.6752 33.4742 67.6468 28.4477 66.4399C23.4848 65.2966 19 62.9745 14.9933 59.4735L2.48013 72L0 69.5172L12.5132 56.9908C9.01594 52.9798 6.66449 48.4584 5.45885 43.4266C4.3168 38.4585 4.32021 33.4895 5.46909 28.5198C6.68164 23.4863 9.0711 18.9935 12.6375 15.0414L0.046055 2.43666ZM36.871 32.6071L54.0647 15.3952C50.5668 12.4035 46.6545 10.3995 42.3279 9.38318C38.1286 8.3668 33.8649 8.36973 29.5369 9.39198C25.2089 10.4142 21.2939 12.4236 17.7918 15.4201L34.9619 32.6084L32.5739 34.999L15.4038 17.8107C12.3468 21.2528 10.3078 25.1402 9.28663 29.4727C8.26547 33.8053 8.2625 38.1372 9.27771 42.4684C10.2929 46.7996 12.2948 50.716 15.2833 54.2177L32.5726 36.9101L35.0527 39.3929L17.7634 56.7005C21.2614 59.6922 25.1737 61.6962 29.5003 62.7124C33.8269 63.7287 38.1542 63.7258 42.4822 62.7035C46.8102 61.6813 50.6934 59.6401 54.1319 56.5799L36.9618 39.3916L39.3498 37.001L56.5199 54.1893C59.5132 50.6836 61.5205 46.7644 62.5417 42.4318C63.5628 38.0992 63.534 33.7992 62.4551 29.5317C61.5034 25.2642 59.5334 21.3796 56.5449 17.8779L39.3511 35.0899L36.871 32.6071Z" fill="white"/>
<path d="M252.299 38.4951V61.0374H244.412V10.1931H252.175V29.21H252.646C253.539 27.1081 254.903 25.453 256.738 24.2448C258.59 23.02 260.987 22.4076 263.93 22.4076C266.559 22.4076 268.849 22.9538 270.8 24.0461C272.767 25.122 274.296 26.7274 275.388 28.8625C276.479 30.9975 277.016 33.6374 277 36.782V61.0374H269.113V37.8247C269.13 35.0939 268.435 32.9753 267.03 31.4692C265.625 29.9465 263.674 29.1852 261.177 29.1852C259.458 29.1852 257.928 29.5493 256.589 30.2775C255.267 31.0058 254.225 32.065 253.464 33.4553C252.704 34.8456 252.315 36.5255 252.299 38.4951Z" fill="white"/>
<path d="M223.596 61.807C219.893 61.807 216.702 60.9712 214.024 59.2995C211.345 57.6113 209.287 55.2942 207.848 52.3481C206.41 49.3855 205.691 45.9843 205.691 42.1445C205.691 38.2551 206.426 34.829 207.898 31.8664C209.369 28.9038 211.436 26.5867 214.098 24.9151C216.776 23.2434 219.918 22.4076 223.522 22.4076C226.481 22.4076 229.11 22.9538 231.408 24.0461C233.723 25.122 235.583 26.6446 236.988 28.6142C238.394 30.5672 239.22 32.8595 239.468 35.4911H231.83C231.45 33.687 230.565 32.1478 229.176 30.8734C227.804 29.599 225.961 28.9618 223.646 28.9618C221.662 28.9618 219.918 29.4914 218.413 30.5506C216.909 31.5933 215.743 33.0912 214.916 35.0442C214.09 36.9807 213.676 39.2895 213.676 41.9707C213.676 44.6851 214.081 47.0353 214.891 49.0214C215.718 50.991 216.875 52.5137 218.363 53.5895C219.868 54.6653 221.629 55.2032 223.646 55.2032C225.035 55.2032 226.291 54.9466 227.415 54.4336C228.54 53.9205 229.482 53.1757 230.243 52.1992C231.003 51.2227 231.532 50.0476 231.83 48.6738H239.468C239.204 51.2227 238.394 53.4819 237.038 55.4514C235.699 57.421 233.888 58.9768 231.607 60.1188C229.325 61.2443 226.655 61.807 223.596 61.807Z" fill="white"/>
<path d="M176.046 38.4951V61.0374H168.159V22.9041H175.723V29.21H176.195C177.071 27.1412 178.451 25.4943 180.336 24.2696C182.237 23.0283 184.61 22.4076 187.454 22.4076C190.066 22.4076 192.348 22.9621 194.299 24.071C196.249 25.1633 197.762 26.777 198.837 28.9121C199.928 31.0306 200.474 33.6539 200.474 36.782V61.0374H192.563V37.8247C192.579 35.1104 191.885 32.9919 190.479 31.4692C189.074 29.9465 187.148 29.1852 184.701 29.1852C183.015 29.1852 181.518 29.5493 180.212 30.2775C178.923 31.0058 177.906 32.065 177.162 33.4553C176.434 34.8456 176.062 36.5255 176.046 38.4951Z" fill="white"/>
<path d="M146.395 61.807C142.625 61.807 139.376 61.0043 136.648 59.3988C133.92 57.7768 131.82 55.5011 130.349 52.5716C128.878 49.6255 128.142 46.1747 128.142 42.219C128.142 38.2965 128.878 34.8539 130.349 31.8913C131.82 28.9121 133.879 26.5867 136.524 24.9151C139.186 23.2434 142.303 22.4076 145.874 22.4076C148.089 22.4076 150.214 22.7717 152.247 23.5C154.298 24.2117 156.124 25.3371 157.728 26.8763C159.332 28.4156 160.597 30.4017 161.523 32.8347C162.448 35.2676 162.911 38.1889 162.911 41.5983V44.2548H132.333V38.5447H155.248C155.232 36.6745 154.835 35.0111 154.058 33.5546C153.297 32.0816 152.223 30.923 150.834 30.0789C149.445 29.2348 147.816 28.8128 145.948 28.8128C143.948 28.8128 142.195 29.301 140.691 30.2775C139.203 31.2375 138.045 32.5119 137.219 34.1008C136.408 35.6731 135.995 37.3779 135.979 39.215V43.8327C135.979 46.2822 136.417 48.3759 137.293 50.1138C138.169 51.8351 139.393 53.1509 140.963 54.0612C142.534 54.9549 144.369 55.4018 146.469 55.4018C147.858 55.4018 149.114 55.2115 150.239 54.8308C151.363 54.4336 152.33 53.846 153.14 53.0681C153.967 52.2737 154.603 51.2889 155.05 50.1138L162.49 51.3054C161.928 53.4074 160.919 55.2528 159.464 56.8417C158.009 58.4141 156.174 59.6388 153.959 60.516C151.743 61.3767 149.222 61.807 146.395 61.807Z" fill="white"/>
<path d="M89.3829 61.0374V10.1931H97.2693V29.1107H97.6909C98.1373 28.2832 98.7656 27.348 99.5757 26.3053C100.402 25.2626 101.535 24.3523 102.973 23.5744C104.412 22.7966 106.296 22.4076 108.628 22.4076C111.653 22.4076 114.365 23.1772 116.762 24.7165C119.159 26.2557 121.052 28.4901 122.441 31.4196C123.83 34.3491 124.524 37.891 124.524 42.0452C124.524 46.1829 123.838 49.7248 122.466 52.6709C121.094 55.6004 119.209 57.8513 116.812 59.4236C114.431 60.9794 111.719 61.7573 108.677 61.7573C106.396 61.7573 104.527 61.3767 103.072 60.6153C101.618 59.854 100.468 58.952 99.6253 57.9092C98.7821 56.8665 98.1373 55.9231 97.6909 55.079H97.0957V61.0374H89.3829ZM97.1205 41.9707C97.1205 44.5858 97.4925 46.8781 98.2365 48.8476C98.997 50.8172 100.088 52.3564 101.51 53.4653C102.948 54.5742 104.701 55.1287 106.768 55.1287C108.9 55.1287 110.686 54.5577 112.124 53.4157C113.579 52.2571 114.679 50.6848 115.423 48.6987C116.167 46.7126 116.539 44.4699 116.539 41.9707C116.539 39.4881 116.175 37.2786 115.448 35.3421C114.72 33.3891 113.629 31.8499 112.174 30.7244C110.736 29.599 108.934 29.0362 106.768 29.0362C104.684 29.0362 102.924 29.5741 101.485 30.6499C100.047 31.7257 98.9557 33.2319 98.2117 35.1683C97.4842 37.1048 97.1205 39.3723 97.1205 41.9707Z" fill="white"/>
</svg>
